HIERARCHY
ROOT Hips
{
  OFFSET 5.72205e-005 65.662 3.42586
  CHANNELS 6 Xposition Yposition Zposition Zrotation Xrotation Yrotation
  JOINT Chest
  {
    OFFSET 0 8.7983 -4.7612
    CHANNELS 6 Xposition Yposition Zposition Zrotation Xrotation Yrotation
    JOINT Chest2
    {
      OFFSET 0 8.0291 0.4195
      CHANNELS 6 Xposition Yposition Zposition Zrotation Xrotation Yrotation
      JOINT Chest3
      {
        OFFSET 0 9.9351 -2.2114
        CHANNELS 6 Xposition Yposition Zposition Zrotation Xrotation Yrotation
        JOINT Neck
        {
          OFFSET 0 22.3885 -0.4656
          CHANNELS 6 Xposition Yposition Zposition Zrotation Xrotation Yrotation
          JOINT Head
          {
            OFFSET -0.0001 12.643 3.4389
            CHANNELS 6 Xposition Yposition Zposition Zrotation Xrotation Yrotation
            End Site
            {
              OFFSET 0.0001 17.6655 0.5274
            }
          }
        }
        JOINT LeftCollar
        {
          OFFSET 2.2603 21.606 7.4023
          CHANNELS 6 Xposition Yposition Zposition Zrotation Xrotation Yrotation
          JOINT LeftShoulder
          {
            OFFSET 13.5163 -1.1332 -5.0146
            CHANNELS 6 Xposition Yposition Zposition Zrotation Xrotation Yrotation
            JOINT LeftElbow
            {
              OFFSET -0.0995 -28.05 -0.2431
              CHANNELS 6 Xposition Yposition Zposition Zrotation Xrotation Yrotation
              JOINT LeftWrist
              {
                OFFSET 0.0679 -23.3996 -0.1402
                CHANNELS 6 Xposition Yposition Zposition Zrotation Xrotation Yrotation
                JOINT LeftFinger1
                {
                  OFFSET 0.7932 -9.069 2.5189
                  CHANNELS 6 Xposition Yposition Zposition Zrotation Xrotation Yrotation
                  JOINT LeftFinger11
                  {
                    OFFSET -0.8272 -3.3923 0.5977
                    CHANNELS 6 Xposition Yposition Zposition Zrotation Xrotation Yrotation
                    JOINT LeftFinger12
                    {
                      OFFSET -0.5649 -2.3158 0.4082
                      CHANNELS 6 Xposition Yposition Zposition Zrotation Xrotation Yrotation
                      End Site
                      {
                        OFFSET -0.4919 -1.6479 0.2673
                      }
                    }
                  }
                }
                JOINT LeftFinger2
                {
                  OFFSET 0.9159 -9.2044 0.2193
                  CHANNELS 6 Xposition Yposition Zposition Zrotation Xrotation Yrotation
                  JOINT LeftFinger21
                  {
                    OFFSET 0.0117 -4.1944 -0.0248
                    CHANNELS 6 Xposition Yposition Zposition Zrotation Xrotation Yrotation
                    JOINT LeftFinger22
                    {
                      OFFSET 0.0071 -2.3249 -0.0142
                      CHANNELS 6 Xposition Yposition Zposition Zrotation Xrotation Yrotation
                      End Site
                      {
                        OFFSET -0.1475 -2.0882 0.0028
                      }
                    }
                  }
                }
                JOINT LeftFinger3
                {
                  OFFSET 0.6113 -8.7231 -2.0637
                  CHANNELS 6 Xposition Yposition Zposition Zrotation Xrotation Yrotation
                  JOINT LeftFinger31
                  {
                    OFFSET -0.1927 -3.8059 -0.2383
                    CHANNELS 6 Xposition Yposition Zposition Zrotation Xrotation Yrotation
                    JOINT LeftFinger32
                    {
                      OFFSET -0.1091 -2.1688 -0.1362
                      CHANNELS 6 Xposition Yposition Zposition Zrotation Xrotation Yrotation
                      End Site
                      {
                        OFFSET -0.2358 -1.9176 -0.0906
                      }
                    }
                  }
                }
                JOINT LeftFinger4
                {
                  OFFSET -0.6151 -8.0947 -3.5641
                  CHANNELS 6 Xposition Yposition Zposition Zrotation Xrotation Yrotation
                  JOINT LeftFinger41
                  {
                    OFFSET -0.4882 -2.341 -0.6462
                    CHANNELS 6 Xposition Yposition Zposition Zrotation Xrotation Yrotation
                    JOINT LeftFinger42
                    {
                      OFFSET -0.3575 -1.7167 -0.4742
                      CHANNELS 6 Xposition Yposition Zposition Zrotation Xrotation Yrotation
                      End Site
                      {
                        OFFSET -0.4187 -1.5237 -0.3496
                      }
                    }
                  }
                }
                JOINT LeftFinger0
                {
                  OFFSET -1.42 -1.8761 1.4223
                  CHANNELS 6 Xposition Yposition Zposition Zrotation Xrotation Yrotation
                  JOINT LeftFinger01
                  {
                    OFFSET -1.1471 -3.4929 2.6334
                    CHANNELS 6 Xposition Yposition Zposition Zrotation Xrotation Yrotation
                    JOINT LeftFinger02
                    {
                      OFFSET -0.823 -2.3 1.6571
                      CHANNELS 6 Xposition Yposition Zposition Zrotation Xrotation Yrotation
                      End Site
                      {
                        OFFSET -0.5822 -1.6914 1.1582
                      }
                    }
                  }
                }
              }
            }
          }
        }
        JOINT RightCollar
        {
          OFFSET -2.2603 21.606 7.4023
          CHANNELS 6 Xposition Yposition Zposition Zrotation Xrotation Yrotation
          JOINT RightShoulder
          {
            OFFSET -13.5187 -1.1334 -5.0155
            CHANNELS 6 Xposition Yposition Zposition Zrotation Xrotation Yrotation
            JOINT RightElbow
            {
              OFFSET 0.0994 -28.0499 -0.2431
              CHANNELS 6 Xposition Yposition Zposition Zrotation Xrotation Yrotation
              JOINT RightWrist
              {
                OFFSET -0.0679 -23.3996 -0.1402
                CHANNELS 6 Xposition Yposition Zposition Zrotation Xrotation Yrotation
                JOINT RightFinger1
                {
                  OFFSET -0.7932 -9.0691 2.5189
                  CHANNELS 6 Xposition Yposition Zposition Zrotation Xrotation Yrotation
                  JOINT RightFinger11
                  {
                    OFFSET 0.8272 -3.3923 0.5977
                    CHANNELS 6 Xposition Yposition Zposition Zrotation Xrotation Yrotation
                    JOINT RightFinger12
                    {
                      OFFSET 0.565 -2.3158 0.4082
                      CHANNELS 6 Xposition Yposition Zposition Zrotation Xrotation Yrotation
                      End Site
                      {
                        OFFSET 0.4919 -1.6479 0.2673
                      }
                    }
                  }
                }
                JOINT RightFinger2
                {
                  OFFSET -0.916 -9.2044 0.2193
                  CHANNELS 6 Xposition Yposition Zposition Zrotation Xrotation Yrotation
                  JOINT RightFinger21
                  {
                    OFFSET -0.0117 -4.1944 -0.0248
                    CHANNELS 6 Xposition Yposition Zposition Zrotation Xrotation Yrotation
                    JOINT RightFinger22
                    {
                      OFFSET -0.0071 -2.3249 -0.0142
                      CHANNELS 6 Xposition Yposition Zposition Zrotation Xrotation Yrotation
                      End Site
                      {
                        OFFSET 0.1475 -2.0882 0.0028
                      }
                    }
                  }
                }
                JOINT RightFinger3
                {
                  OFFSET -0.6113 -8.7231 -2.0637
                  CHANNELS 6 Xposition Yposition Zposition Zrotation Xrotation Yrotation
                  JOINT RightFinger31
                  {
                    OFFSET 0.1927 -3.8059 -0.2383
                    CHANNELS 6 Xposition Yposition Zposition Zrotation Xrotation Yrotation
                    JOINT RightFinger32
                    {
                      OFFSET 0.1091 -2.1688 -0.1362
                      CHANNELS 6 Xposition Yposition Zposition Zrotation Xrotation Yrotation
                      End Site
                      {
                        OFFSET 0.2358 -1.9176 -0.0906
                      }
                    }
                  }
                }
                JOINT RightFinger4
                {
                  OFFSET 0.6151 -8.0947 -3.564
                  CHANNELS 6 Xposition Yposition Zposition Zrotation Xrotation Yrotation
                  JOINT RightFinger41
                  {
                    OFFSET 0.4882 -2.341 -0.6462
                    CHANNELS 6 Xposition Yposition Zposition Zrotation Xrotation Yrotation
                    JOINT RightFinger42
                    {
                      OFFSET 0.3574 -1.7166 -0.4742
                      CHANNELS 6 Xposition Yposition Zposition Zrotation Xrotation Yrotation
                      End Site
                      {
                        OFFSET 0.4187 -1.5237 -0.3496
                      }
                    }
                  }
                }
                JOINT RightFinger0
                {
                  OFFSET 1.4199 -1.8761 1.4221
                  CHANNELS 6 Xposition Yposition Zposition Zrotation Xrotation Yrotation
                  JOINT RightFinger01
                  {
                    OFFSET 1.1472 -3.4929 2.6336
                    CHANNELS 6 Xposition Yposition Zposition Zrotation Xrotation Yrotation
                    JOINT RightFinger02
                    {
                      OFFSET 0.8229 -2.3 1.6571
                      CHANNELS 6 Xposition Yposition Zposition Zrotation Xrotation Yrotation
                      End Site
                      {
                        OFFSET 0.5822 -1.6914 1.1582
                      }
                    }
                  }
                }
              }
            }
          }
        }
      }
    }
  }
  JOINT RightHip
  {
    OFFSET -9.412 3.9771 -0.7758
    CHANNELS 6 Xposition Yposition Zposition Zrotation Xrotation Yrotation
    JOINT RightKnee
    {
      OFFSET -0.7531 -40.938 0
      CHANNELS 6 Xposition Yposition Zposition Zrotation Xrotation Yrotation
      JOINT RightAnkle
      {
        OFFSET 0 -40.1986 0
        CHANNELS 6 Xposition Yposition Zposition Zrotation Xrotation Yrotation
        JOINT RightToe
        {
          OFFSET 0 -4.4182 9.239
          CHANNELS 6 Xposition Yposition Zposition Zrotation Xrotation Yrotation
          End Site
          {
            OFFSET 0 0 6.1981
          }
        }
      }
    }
  }
  JOINT LeftHip
  {
    OFFSET 9.4119 3.9773 -0.7758
    CHANNELS 6 Xposition Yposition Zposition Zrotation Xrotation Yrotation
    JOINT LeftKnee
    {
      OFFSET 0.7532 -40.9383 0
      CHANNELS 6 Xposition Yposition Zposition Zrotation Xrotation Yrotation
      JOINT LeftAnkle
      {
        OFFSET 0 -40.1986 0
        CHANNELS 6 Xposition Yposition Zposition Zrotation Xrotation Yrotation
        JOINT LeftToe
        {
          OFFSET 0 -4.4182 9.239
          CHANNELS 6 Xposition Yposition Zposition Zrotation Xrotation Yrotation
          End Site
          {
            OFFSET 0 0 6.1981
          }
        }
      }
    }
  }
}
MOTION
Frames:	4
Frame Time:	0.0333333
0.169695 10.2065 48.9009 180 -44 180 0 8.7983 -4.7612 0.622111 10.1252 0.118457 -2.77556e-017 8.0291 0.4195 1.25269 20.2511 0.126175 1.11022e-016 9.9351 -2.2114 1.25269 20.2511 0.126175 0 22.3885 -0.4656 -1.445e-005 17.9981 -5.55186e-006 -0.0001 12.643 3.4389 0.0653359 -7.72344 -26.5448 2.2603 21.606 7.4023 -15.579 10.9732 -55.4412 13.5163 -1.1332 -5.0146 41.7985 14.2265 17.5133 -0.0995 -28.05 -0.2431 34.276 -52.3584 89.1028 0.0679 -23.3996 -0.1402 -55.9689 9.68802 -10.487 0.7932 -9.069 2.5189 -2.18663e-015 -4.37326e-015 -3.18055e-015 -0.8272 -3.3923 0.5977 1.07635e-007 4.03629e-007 -1.59907e-006 -0.5649 -2.3158 0.4082 -3.97569e-016 -1.59028e-015 -3.18055e-015 0.9159 -9.2044 0.2193 -2.18663e-015 -4.37326e-015 -3.18055e-015 0.0117 -4.1944 -0.0248 -0.0128139 0.00232283 8.5568e-005 0.0071 -2.3249 -0.0142 1.98785e-015 -1.59028e-015 -3.18055e-015 0.6113 -8.7231 -2.0637 -2.18663e-015 -4.37326e-015 -3.18055e-015 -0.1927 -3.8059 -0.2383 -0.0160457 0.00299493 0.00085759 -0.1091 -2.1688 -0.1362 2.98177e-015 -1.59028e-015 6.36111e-015 -0.6151 -8.0947 -3.5641 -2.18663e-015 -4.37326e-015 -3.18055e-015 -0.4882 -2.341 -0.6462 -0.0125057 0.00310154 0.00281008 -0.3575 -1.7167 -0.4742 -1.05356e-014 5.1684e-015 -0 -1.42 -1.8761 1.4223 -2.18663e-015 -4.37326e-015 -3.18055e-015 -1.1471 -3.4929 2.6334 1.07635e-007 4.03629e-007 -1.59907e-006 -0.823 -2.3 1.6571 -3.97569e-016 -1.59028e-015 -3.18055e-015 -2.2603 21.606 7.4023 14.8556 10.891 49.7216 -13.5187 -1.1334 -5.0155 -42.5541 11.8528 -13.3083 0.0994 -28.0499 -0.2431 -32.157 -52.2463 -88.5899 -0.0679 -23.3996 -0.1402 60.6606 12.8958 16.4575 -0.793201 -9.0691 2.5189 -1.3418e-015 -1.98785e-015 3.18055e-015 0.827201 -3.3923 0.5977 4.3441e-006 5.5225e-007 3.03676e-006 0.565 -2.3158 0.4082 1.49089e-016 -1.78906e-015 -0 -0.916001 -9.2044 0.2193 -1.3418e-015 -1.98785e-015 3.18055e-015 -0.0117 -4.1944 -0.0248 0.0129727 0.00232154 -8.4936e-005 -0.0071 -2.3249 -0.0142 -1.49089e-016 -1.39149e-015 -0 -0.6113 -8.7231 -2.0637 -1.3418e-015 -1.98785e-015 3.18055e-015 0.1927 -3.8059 -0.2383 0.0163582 0.00304113 -0.000873101 0.1091 -2.1688 -0.1362 -7.63308e-006 -3.36048e-006 -6.90003e-008 0.6151 -8.0947 -3.564 -1.3418e-015 -1.98785e-015 3.18055e-015 0.4882 -2.341 -0.6462 0.0145877 0.00367821 -0.00326174 0.3574 -1.7166 -0.4742 -1.59953e-006 -5.31776e-007 -9.53289e-007 1.4199 -1.8761 1.4221 -1.3418e-015 -1.98785e-015 3.18055e-015 1.1472 -3.4929 2.6336 4.3441e-006 5.5225e-007 3.03676e-006 0.8229 -2.3 1.6571 1.49089e-016 -1.78906e-015 -0 -9.412 3.9771 -0.7758 -141.657 -80.2609 -147.24 -0.7531 -40.938 -3.55271e-015 2.23822 45.4516 -2.01644 0 -40.1986 0 -9.66377 7.03803 2.53738 8.88179e-016 -4.4182 9.239 8.46537e-007 4.83429e-008 -1.64115e-008 9.4119 3.9773 -0.7758 122.807 -74.5581 135.974 0.7532 -40.9383 -7.10543e-015 3.47991 31.909 -1.41147 0 -40.1986 0 8.64657 -2.23169 -10.2853 -1.77636e-015 -4.4182 9.239 -6.43433e-006 3.9795e-006 -2.13142e-006 
0.172437 10.2089 48.9044 180 -44 -180 0 8.7983 -4.7612 0.62355 10.2117 0.115924 5.55112e-017 8.0291 0.4195 1.25646 20.4241 0.119697 0 9.9351 -2.2114 1.25646 20.4242 0.119696 0 22.3885 -0.4656 -1.21644e-005 17.9981 -4.05201e-006 -0.0001 12.643 3.4389 0.108509 -7.53654 -26.2396 2.2603 21.606 7.4023 -15.3356 10.5879 -55.4753 13.5163 -1.1332 -5.0146 41.5455 14.1777 17.5499 -0.0995 -28.05 -0.2431 34.2884 -52.5182 89.107 0.0679 -23.3996 -0.1402 -55.8061 9.536 -10.7556 0.793201 -9.069 2.5189 1.03368e-014 2.46493e-014 -0 -0.827201 -3.3923 0.5977 -3.97569e-015 2.42517e-014 -0 -0.5649 -2.3158 0.4082 5.76476e-015 2.34566e-014 -0 0.915901 -9.20439 0.2193 1.03368e-014 2.46493e-014 -0 0.0117 -4.1944 -0.0248 -0.0128366 0.00233055 8.2547e-005 0.00710001 -2.3249 -0.0142 3.57812e-015 -1.59028e-015 -0 0.6113 -8.72309 -2.0637 1.03368e-014 2.46493e-014 -0 -0.1927 -3.8059 -0.2383 -0.0160676 0.00300065 0.000855538 -0.1091 -2.1688 -0.1362 9.93923e-016 -2.38542e-015 -3.18055e-015 -0.6151 -8.0947 -3.5641 1.03368e-014 2.46493e-014 -0 -0.4882 -2.341 -0.6462 -0.0125671 0.00311614 0.00281893 -0.3575 -1.7167 -0.4742 3.97569e-015 1.19271e-015 3.18055e-015 -1.42 -1.8761 1.4223 1.03368e-014 2.46493e-014 -0 -1.1471 -3.4929 2.6334 -3.97569e-015 2.42517e-014 -0 -0.823001 -2.3 1.6571 5.76476e-015 2.34566e-014 -0 -2.2603 21.606 7.4023 14.6104 10.4925 49.7654 -13.5187 -1.1334 -5.0155 -42.3017 11.8163 -13.3287 0.0994 -28.0499 -0.2431 -32.1669 -52.4055 -88.5881 -0.0679 -23.3996 -0.1402 60.3184 12.6302 16.5731 -0.793201 -9.0691 2.5189 -5.76476e-015 -2.18663e-015 3.18055e-015 0.827201 -3.3923 0.5977 -4.82053e-015 1.19271e-015 -3.18055e-015 0.565 -2.3158 0.4082 -4.91992e-015 -7.95139e-016 -0 -0.916001 -9.2044 0.2193 -5.76476e-015 -2.18663e-015 3.18055e-015 -0.0117 -4.1944 -0.0248 0.0129275 0.00231323 -8.65939e-005 -0.0071 -2.3249 -0.0142 6.01324e-015 -1.79201e-006 3.18055e-015 -0.6113 -8.7231 -2.0637 -5.76476e-015 -2.18663e-015 3.18055e-015 0.1927 -3.8059 -0.2383 0.0162723 0.00302195 -0.000869941 0.1091 -2.1688 -0.1362 -3.8763e-015 -1.98785e-016 -0 0.6151 -8.0947 -3.564 -5.76476e-015 -2.18663e-015 3.18055e-015 0.4882 -2.341 -0.6462 0.0146245 0.00368893 -0.00327128 0.3574 -1.7166 -0.4742 -4.52235e-015 2.98177e-015 -0 1.4199 -1.8761 1.4221 -5.76476e-015 -2.18663e-015 3.18055e-015 1.1472 -3.4929 2.6336 -4.82053e-015 1.19271e-015 -3.18055e-015 0.822901 -2.3 1.6571 -4.91992e-015 -7.95139e-016 -0 -9.412 3.9771 -0.7758 -140.925 -80.2337 -146.519 -0.7531 -40.938 3.55271e-015 2.24689 45.754 -2.03491 0 -40.1986 0 -9.65707 7.02638 2.53333 2.66454e-015 -4.4182 9.239 -1.67103e-015 -2.68763e-008 1.59028e-015 9.4119 3.9773 -0.7758 122.369 -74.3826 135.554 0.7532 -40.9383 -3.55271e-015 3.4783 31.8932 -1.41134 0 -40.1986 0 8.64441 -2.21791 -10.2875 0 -4.4182 9.239 1.50833e-007 -1.56084e-007 -1.89253e-006 
0.175195 10.2112 48.9079 180 -44 180 0 8.7983 -4.7612 0.624991 10.2983 0.113383 0 8.0291 0.4195 1.26025 20.5972 0.113192 0 9.9351 -2.2114 1.26025 20.5972 0.113192 2.22045e-016 22.3885 -0.4656 -1.27547e-005 17.9981 -3.3022e-006 -0.0001 12.643 3.4389 0.150696 -7.34925 -25.9344 2.2603 21.606 7.4023 -15.0926 10.2023 -55.5077 13.5163 -1.1332 -5.0146 41.2915 14.1304 17.5864 -0.0995 -28.05 -0.2431 34.3028 -52.6794 89.113 0.0679 -23.3996 -0.1402 -55.6441 9.38323 -11.0236 0.7932 -9.069 2.5189 -6.16232e-015 3.97569e-016 -3.18055e-015 -0.8272 -3.3923 0.5977 3.37934e-015 -1.59028e-015 -0 -0.5649 -2.3158 0.4082 1.1086e-007 -9.29055e-007 -1.60185e-006 0.9159 -9.2044 0.2193 -6.16232e-015 3.97569e-016 -3.18055e-015 0.0117 -4.1944 -0.0248 -0.0127988 0.00232113 8.52833e-005 0.00710001 -2.3249 -0.0142 4.17448e-015 -3.57812e-015 6.36111e-015 0.6113 -8.7231 -2.0637 -6.16232e-015 3.97569e-016 -3.18055e-015 -0.1927 -3.8059 -0.2383 -0.0160134 0.00298774 0.000857046 -0.1091 -2.1688 -0.1362 7.95139e-016 3.97569e-016 -3.18055e-015 -0.6151 -8.0947 -3.5641 -6.16232e-015 3.97569e-016 -3.18055e-015 -0.4882 -2.341 -0.6462 -0.0126754 0.0031423 0.00284502 -0.3575 -1.7167 -0.4742 2.05332e-006 -4.12123e-007 1.05497e-006 -1.42 -1.8761 1.4223 -6.16232e-015 3.97569e-016 -3.18055e-015 -1.1471 -3.4929 2.6334 3.37934e-015 -1.59028e-015 -0 -0.823 -2.3 1.6571 1.1086e-007 -9.29055e-007 -1.60185e-006 -2.2603 21.606 7.4023 14.3658 10.0937 49.8074 -13.5187 -1.1334 -5.0155 -42.0447 11.7886 -13.3499 0.0994 -28.0499 -0.2431 -32.1858 -52.5728 -88.5947 -0.0679 -23.3996 -0.1402 59.977 12.3639 16.6869 -0.7932 -9.0691 2.5189 1.14301e-015 2.3059e-014 -0 0.8272 -3.3923 0.5977 5.06901e-015 2.40529e-014 6.36111e-015 0.565 -2.3158 0.4082 2.88238e-015 2.68359e-014 3.18055e-015 -0.916001 -9.2044 0.2193 1.14301e-015 2.3059e-014 -0 -0.0117 -4.1944 -0.0248 0.012921 0.00231181 -8.7588e-005 -0.0071 -2.3249 -0.0142 -5.26779e-015 7.95139e-016 -0 -0.6113 -8.7231 -2.0637 1.14301e-015 2.3059e-014 -0 0.1927 -3.8059 -0.2383 0.0163573 0.00303986 -0.000870858 0.1091 -2.1688 -0.1362 -3.18055e-015 9.93923e-016 -3.18055e-015 0.6151 -8.0947 -3.564 1.14301e-015 2.3059e-014 -0 0.4882 -2.341 -0.6462 0.0146033 0.00368247 -0.00326733 0.3574 -1.7166 -0.4742 5.96354e-015 -9.93923e-016 -3.18055e-015 1.4199 -1.8761 1.4221 1.14301e-015 2.3059e-014 -0 1.1472 -3.4929 2.6336 5.06901e-015 2.40529e-014 6.36111e-015 0.8229 -2.3 1.6571 2.88238e-015 2.68359e-014 3.18055e-015 -9.412 3.9771 -0.7758 -140.2 -80.204 -145.805 -0.7531 -40.938 0 2.25585 46.0573 -2.05357 -3.55271e-015 -40.1986 0 -9.65037 7.01477 2.52928 -8.88179e-016 -4.4182 9.239 -4.96962e-016 1.07508e-007 7.95139e-016 9.4119 3.9773 -0.7758 121.939 -74.2063 135.144 0.7532 -40.9383 -3.55271e-015 3.47659 31.8771 -1.41121 0 -40.1986 3.55271e-015 8.64234 -2.20393 -10.2896 1.77636e-015 -4.4182 9.239 -5.04789e-006 -1.16115e-005 -5.57365e-006 
0.177967 10.2135 48.9114 180 -44 180 2.77556e-017 8.7983 -4.7612 0.626432 10.3849 0.110836 5.55112e-017 8.0291 0.4195 1.26407 20.7704 0.106659 0 9.9351 -2.2114 1.26407 20.7704 0.106659 2.22045e-016 22.3885 -0.4656 -1.48723e-005 17.9981 -4.00347e-006 -0.0001 12.643 3.4389 0.191883 -7.16161 -25.6293 2.2603 21.606 7.4023 -14.85 9.81639 -55.5385 13.5163 -1.1332 -5.0146 41.0388 14.0809 17.6225 -0.0995 -28.05 -0.2431 34.315 -52.8389 89.1171 0.0679 -23.3996 -0.1402 -55.4828 9.22967 -11.2912 0.793201 -9.069 2.5189 -1.12448e-007 9.28311e-007 1.60323e-006 -0.827201 -3.3923 0.5977 -3.37934e-015 -2.38542e-015 3.18055e-015 -0.5649 -2.3158 0.4082 4.96962e-015 1.59028e-015 9.54166e-015 0.915901 -9.2044 0.2193 -1.12448e-007 9.28311e-007 1.60323e-006 0.0117 -4.1944 -0.0248 -0.0128564 0.00233214 8.70541e-005 0.0071 -2.3249 -0.0142 -4.96962e-015 -3.97569e-015 -0 0.6113 -8.7231 -2.0637 -1.12448e-007 9.28311e-007 1.60323e-006 -0.1927 -3.8059 -0.2383 -0.0160372 0.00299355 0.000856011 -0.1091 -2.1688 -0.1362 -1.1237e-007 -8.82489e-007 1.60322e-006 -0.615101 -8.0947 -3.5641 -1.12448e-007 9.28311e-007 1.60323e-006 -0.4882 -2.341 -0.6462 -0.0125974 0.00312343 0.00282894 -0.3575 -1.7167 -0.4742 -1.21259e-014 -9.37581e-007 -6.36111e-015 -1.42 -1.8761 1.4223 -1.12448e-007 9.28311e-007 1.60323e-006 -1.1471 -3.4929 2.6334 -3.37934e-015 -2.38542e-015 3.18055e-015 -0.823001 -2.3 1.6571 4.96962e-015 1.59028e-015 9.54166e-015 -2.2603 21.606 7.4023 14.1216 9.69448 49.8477 -13.5187 -1.1334 -5.0155 -41.7915 11.7538 -13.3701 0.0994 -28.0499 -0.2431 -32.1974 -52.7336 -88.5946 -0.0679 -23.3996 -0.1402 59.6364 12.0968 16.7991 -0.7932 -9.0691 2.5189 -8.44835e-016 2.38542e-015 3.18055e-015 0.8272 -3.3923 0.5977 -6.4605e-016 1.59028e-015 -0 0.565 -2.3158 0.4082 -3.13086e-015 1.98785e-016 3.18055e-015 -0.916 -9.2044 0.2193 -8.44835e-016 2.38542e-015 3.18055e-015 -0.0117 -4.1944 -0.0248 0.012979 0.00232255 -8.84878e-005 -0.0071 -2.3249 -0.0142 -6.26172e-015 2.60408e-014 -3.18055e-015 -0.6113 -8.7231 -2.0637 -8.44835e-016 2.38542e-015 3.18055e-015 0.1927 -3.8059 -0.2383 0.0162681 0.00302279 -0.000870483 0.1091 -2.1688 -0.1362 1.63997e-015 -1.98785e-015 3.18055e-015 0.6151 -8.0947 -3.564 -8.44835e-016 2.38542e-015 3.18055e-015 0.4882 -2.341 -0.6462 0.0145908 0.00368242 -0.00326499 0.3574 -1.7166 -0.4742 5.2181e-015 7.95139e-016 6.36111e-015 1.4199 -1.8761 1.4221 -8.44835e-016 2.38542e-015 3.18055e-015 1.1472 -3.4929 2.6336 -6.4605e-016 1.59028e-015 -0 0.8229 -2.3 1.6571 -3.13086e-015 1.98785e-016 3.18055e-015 -9.412 3.9771 -0.7758 -139.482 -80.1719 -145.098 -0.7531 -40.938 0 2.26521 46.3617 -2.07253 0 -40.1986 1.77636e-015 -9.6437 7.00321 2.52524 -2.66454e-015 -4.4182 9.239 4.72114e-016 5.375e-008 -7.95139e-016 9.4119 3.9773 -0.7758 121.518 -74.0292 134.742 0.7532 -40.9383 0 3.47494 31.8611 -1.41105 -3.55271e-015 -40.1986 -3.55271e-015 8.64026 -2.19004 -10.2917 5.32907e-015 -4.4182 9.239 -1.51729e-006 3.47564e-006 6.89023e-007 
